<?xml version="1.0" standalone="no"?>
<!DOCTYPE svg PUBLIC "-//W3C//DTD SVG 20010904//EN"
 "http://www.w3.org/TR/2001/REC-SVG-20010904/DTD/svg10.dtd">
<svg version="1.0" xmlns="http://www.w3.org/2000/svg"
 width="116.000000pt" height="57.000000pt" viewBox="0 0 116.000000 57.000000"
 preserveAspectRatio="xMidYMid meet">
<metadata>
Created by potrace 1.16, written by Peter Selinger 2001-2019
</metadata>
<g transform="translate(0.000000,57.000000) scale(0.100000,-0.100000)"
fill="#000000" stroke="none">
<path d="M163 393 c15 -4 17 -18 17 -103 0 -85 -2 -99 -17 -103 -10 -3 30 -5
90 -6 l107 -1 -1 43 c0 32 -2 37 -9 22 -10 -25 -28 -40 -57 -49 -23 -7 -23 -6
-23 93 0 86 2 100 18 104 9 3 -19 5 -63 5 -44 0 -72 -2 -62 -5z"/>
<path d="M376 392 c6 -4 25 -32 43 -63 33 -59 42 -133 19 -142 -7 -3 23 -5 67
-5 44 0 72 2 63 5 -14 3 -18 15 -18 54 0 28 5 60 11 72 9 20 9 21 -4 4 -14
-16 -16 -15 -40 25 -18 31 -22 45 -14 50 7 4 -22 8 -63 8 -41 0 -70 -4 -64 -8z"/>
<path d="M642 388 c8 -7 30 -57 49 -110 31 -90 36 -98 59 -98 20 0 30 8 44 36
9 20 14 39 11 42 -3 3 -5 1 -6 -4 0 -5 -11 22 -25 60 -13 38 -21 73 -18 77 3
5 -25 9 -62 9 -56 0 -65 -2 -52 -12z"/>
<path d="M777 392 c17 -11 45 -93 38 -111 -3 -9 -3 -12 2 -8 4 5 15 -13 24
-40 13 -39 20 -49 42 -51 22 -3 28 3 46 44 12 26 19 49 16 52 -3 3 -5 -1 -5
-8 0 -25 -17 3 -34 57 -10 29 -15 57 -11 63 4 6 -18 10 -62 10 -37 0 -63 -4
-56 -8z"/>
</g>
</svg>
